<svg xmlns="http://www.w3.org/2000/svg" width="221" height="221" viewBox="0 0 221 221" fill="none">
  <g filter="url(#filter0_ii_921_37)">
    <rect width="221" height="221" rx="40" fill="#2F2F2F"/>
  </g>
  <path opacity="0.8" d="M23 13L27.628 11.0223C33.8385 8.36828 40.5223 7 47.2761 7H173.115C180.586 7 187.962 8.67422 194.701 11.8996L197 13" stroke="url(#paint0_linear_921_37)" stroke-width="1.2" stroke-linecap="round"/>
  <path d="M199 208V208C206.043 200.957 210 191.404 210 181.444V36.0403C210 29.9174 207.638 24.0305 203.406 19.6058V19.6058C200.519 16.5885 196.89 14.3845 192.881 13.2154L187 11.5" stroke="url(#paint1_linear_921_37)" stroke-width="1.5" stroke-linecap="round"/>
  <path d="M14.5 190V190.5C14.5 199.889 22.1112 207.5 31.5 207.5V207.5" stroke="url(#paint2_linear_921_37)" stroke-width="2" stroke-linecap="round"/>
  <path d="M198.5 20.5V20.5C193.291 15.9418 186.816 13.079 179.939 12.293L173 11.5" stroke="url(#paint3_linear_921_37)" stroke-width="2" stroke-linecap="round"/>
  <path d="M210.25 21L209.22 19.7454C206.117 15.968 202.17 12.9724 197.697 11V11" stroke="url(#paint4_linear_921_37)" stroke-width="2" stroke-linecap="round"/>
  <defs>
    <filter id="filter0_ii_921_37" x="-8" y="-11" width="244" height="235" filterUnits="userSpaceOnUse" color-interpolation-filters="sRGB">
      <feFlood flood-opacity="0" result="BackgroundImageFix"/>
      <feBlend mode="normal" in="SourceGraphic" in2="BackgroundImageFix" result="shape"/>
      <feColorMatrix in="SourceAlpha" type="matrix" values="0 0 0 0 0 0 0 0 0 0 0 0 0 0 0 0 0 0 127 0" result="hardAlpha"/>
      <feOffset dx="-8" dy="3"/>
      <feGaussianBlur stdDeviation="4"/>
      <feComposite in2="hardAlpha" operator="arithmetic" k2="-1" k3="1"/>
      <feColorMatrix type="matrix" values="0 0 0 0 0 0 0 0 0 0 0 0 0 0 0 0 0 0 1 0"/>
      <feBlend mode="normal" in2="shape" result="effect1_innerShadow_921_37"/>
      <feColorMatrix in="SourceAlpha" type="matrix" values="0 0 0 0 0 0 0 0 0 0 0 0 0 0 0 0 0 0 127 0" result="hardAlpha"/>
      <feOffset dx="15" dy="-11"/>
      <feGaussianBlur stdDeviation="10"/>
      <feComposite in2="hardAlpha" operator="arithmetic" k2="-1" k3="1"/>
      <feColorMatrix type="matrix" values="0 0 0 0 0 0 0 0 0 0 0 0 0 0 0 0 0 0 0.7 0"/>
      <feBlend mode="normal" in2="effect1_innerShadow_921_37" result="effect2_innerShadow_921_37"/>
    </filter>
    <linearGradient id="paint0_linear_921_37" x1="110" y1="7" x2="110" y2="13" gradientUnits="userSpaceOnUse">
      <stop stop-color="white"/>
      <stop offset="0.692708" stop-color="white" stop-opacity="0"/>
    </linearGradient>
    <linearGradient id="paint1_linear_921_37" x1="198.5" y1="11.5" x2="198.5" y2="208" gradientUnits="userSpaceOnUse">
      <stop stop-color="white" stop-opacity="0.05"/>
      <stop offset="0.34375" stop-color="white" stop-opacity="0.6"/>
      <stop offset="0.833333" stop-color="white" stop-opacity="0.37"/>
      <stop offset="1" stop-color="white" stop-opacity="0"/>
    </linearGradient>
    <linearGradient id="paint2_linear_921_37" x1="23.25" y1="192.5" x2="23.25" y2="207.5" gradientUnits="userSpaceOnUse">
      <stop stop-color="white" stop-opacity="0"/>
      <stop offset="0.411458" stop-color="white"/>
      <stop offset="0.6875" stop-color="white"/>
      <stop offset="1" stop-color="white" stop-opacity="0"/>
    </linearGradient>
    <linearGradient id="paint3_linear_921_37" x1="190.25" y1="26" x2="190.25" y2="11" gradientUnits="userSpaceOnUse">
      <stop stop-color="white" stop-opacity="0"/>
      <stop offset="0.510417" stop-color="white" stop-opacity="0.96"/>
      <stop offset="0.6875" stop-color="white"/>
      <stop offset="0.953125" stop-color="white" stop-opacity="0"/>
    </linearGradient>
    <linearGradient id="paint4_linear_921_37" x1="204.603" y1="21.5905" x2="207.431" y2="14.7683" gradientUnits="userSpaceOnUse">
      <stop stop-color="white" stop-opacity="0"/>
      <stop offset="0.255208" stop-color="white" stop-opacity="0"/>
      <stop offset="0.744792" stop-color="white"/>
      <stop offset="0.953125" stop-color="white" stop-opacity="0"/>
    </linearGradient>
  </defs>
</svg>