<svg xmlns="http://www.w3.org/2000/svg" width="115" height="41" viewBox="0 0 115 41" fill="none">
  <g filter="url(#filter0_ii_924_46)">
    <rect width="115" height="40.5882" rx="5" fill="#2F2F2F"/>
  </g>
  <path opacity="0.8" d="M2.70581 3.13136V3.13136C4.45216 2.40393 6.32524 2.02942 8.21704 2.02942H104.574C106.305 2.02942 108.016 2.40539 109.588 3.13136V3.13136" stroke="url(#paint0_linear_924_46)" stroke-width="0.6" stroke-linecap="round"/>
  <path d="M110.059 37.8824V37.8824C111.882 36.6257 112.971 34.5531 112.971 32.3389V7.28937C112.971 5.7051 112.209 4.21742 110.924 3.2912V3.2912C110.354 2.8805 109.702 2.59639 109.014 2.45793L106.882 2.02942" stroke="url(#paint1_linear_924_46)" stroke-width="0.6" stroke-linecap="round"/>
  <path d="M2.70581 35.1765V35.1765C2.70581 36.9297 4.12705 38.3509 5.88023 38.3509H12.9849" stroke="url(#paint2_linear_924_46)" stroke-width="0.6" stroke-linecap="round"/>
  <path d="M110.981 4.68652V4.68652C109.989 3.6947 108.688 3.07185 107.293 2.92131L106.186 2.80184" stroke="url(#paint3_linear_924_46)" stroke-width="0.5" stroke-linecap="round"/>
  <path d="M112.321 4.15466L111.731 3.27042C111.673 3.1836 111.601 3.09705 111.516 3.01171L111.493 2.98847C111.154 2.64941 110.608 2.3437 109.953 2.12525V2.12525" stroke="url(#paint4_linear_924_46)" stroke-width="0.5" stroke-linecap="round"/>
  <defs>
    <filter id="filter0_ii_924_46" x="-2" y="-3" width="119" height="45.5883" filterUnits="userSpaceOnUse" color-interpolation-filters="sRGB">
      <feFlood flood-opacity="0" result="BackgroundImageFix"/>
      <feBlend mode="normal" in="SourceGraphic" in2="BackgroundImageFix" result="shape"/>
      <feColorMatrix in="SourceAlpha" type="matrix" values="0 0 0 0 0 0 0 0 0 0 0 0 0 0 0 0 0 0 127 0" result="hardAlpha"/>
      <feOffset dx="-2" dy="2"/>
      <feGaussianBlur stdDeviation="2"/>
      <feComposite in2="hardAlpha" operator="arithmetic" k2="-1" k3="1"/>
      <feColorMatrix type="matrix" values="0 0 0 0 0 0 0 0 0 0 0 0 0 0 0 0 0 0 1 0"/>
      <feBlend mode="normal" in2="shape" result="effect1_innerShadow_924_46"/>
      <feColorMatrix in="SourceAlpha" type="matrix" values="0 0 0 0 0 0 0 0 0 0 0 0 0 0 0 0 0 0 127 0" result="hardAlpha"/>
      <feOffset dx="2" dy="-3"/>
      <feGaussianBlur stdDeviation="4"/>
      <feComposite in2="hardAlpha" operator="arithmetic" k2="-1" k3="1"/>
      <feColorMatrix type="matrix" values="0 0 0 0 0 0 0 0 0 0 0 0 0 0 0 0 0 0 0.7 0"/>
      <feBlend mode="normal" in2="effect1_innerShadow_924_46" result="effect2_innerShadow_924_46"/>
    </filter>
    <linearGradient id="paint0_linear_924_46" x1="55.4705" y1="2.02942" x2="55.4705" y2="3.13136" gradientUnits="userSpaceOnUse">
      <stop stop-color="white"/>
      <stop offset="0.692708" stop-color="white" stop-opacity="0"/>
    </linearGradient>
    <linearGradient id="paint1_linear_924_46" x1="109.926" y1="2.02942" x2="109.926" y2="37.8824" gradientUnits="userSpaceOnUse">
      <stop stop-color="white" stop-opacity="0.05"/>
      <stop offset="0.34375" stop-color="white" stop-opacity="0.6"/>
      <stop offset="0.833333" stop-color="white" stop-opacity="0.37"/>
      <stop offset="1" stop-color="white" stop-opacity="0"/>
    </linearGradient>
    <linearGradient id="paint2_linear_924_46" x1="7.9965" y1="35.63" x2="7.9965" y2="38.3509" gradientUnits="userSpaceOnUse">
      <stop stop-color="white" stop-opacity="0"/>
      <stop offset="0.411458" stop-color="white"/>
      <stop offset="0.6875" stop-color="white"/>
      <stop offset="1" stop-color="white" stop-opacity="0"/>
    </linearGradient>
    <linearGradient id="paint3_linear_924_46" x1="109.487" y1="5.97267" x2="109.385" y2="2.59187" gradientUnits="userSpaceOnUse">
      <stop stop-color="white" stop-opacity="0"/>
      <stop offset="0.510417" stop-color="white" stop-opacity="0.96"/>
      <stop offset="0.6875" stop-color="white"/>
      <stop offset="0.953125" stop-color="white" stop-opacity="0"/>
    </linearGradient>
    <linearGradient id="paint4_linear_924_46" x1="111.173" y1="3.29607" x2="111.576" y2="2.73029" gradientUnits="userSpaceOnUse">
      <stop stop-color="white" stop-opacity="0"/>
      <stop offset="0.255208" stop-color="white" stop-opacity="0"/>
      <stop offset="0.744792" stop-color="white"/>
      <stop offset="0.953125" stop-color="white" stop-opacity="0"/>
    </linearGradient>
  </defs>
</svg>