<svg xmlns="http://www.w3.org/2000/svg" width="500" height="60" viewBox="0 0 500 60" fill="none">
  <path d="M413.523 58.5H410.213V55.5V54H408.713H404H399.094H397.594V55.5V58.5H394.284H375.046H343.807H312.569H281.33H250.091H218.83H187.569H171.938H165.622V55.5V54H164.122H156.5H148.492H146.992V55.5V58.5H140.676H125.046H115.352H112.006V55.5V54H110.506H105.077H100.813H99.3127V55.5V58.5H95.966H86.2728H48.0088L25.9126 41.5596L25.9063 41.5548L25.9 41.55L1.5 23.25V1.5H498.5V23.25L475.6 40.425L451.5 58.5H413.523Z" stroke="#191919" stroke-width="1"/>
</svg>